<?xml version="1.0" encoding="utf-8"?><svg viewBox="0 0 502.66 502.66" xmlns="http://www.w3.org/2000/svg" xmlns:xlink="http://www.w3.org/1999/xlink"><style>:root>svg{display:none}:root>svg:target{display:block}</style><svg viewBox="0 0 5 10" id="arrow" xmlns="http://www.w3.org/2000/svg"><path d="M.159 9.838a.533.533 0 00.766 0l3.599-3.682a1.69 1.69 0 000-2.35L.965.162a.533.533 0 00-.766 0 .563.563 0 000 .784l3.56 3.641a.563.563 0 010 .784L.16 9.054a.563.563 0 000 .784z"/></svg><svg viewBox="0 0 20 22" id="bag" xmlns="http://www.w3.org/2000/svg"><path fill-rule="evenodd" clip-rule="evenodd" d="M14.592 5l-.06-.243c-.267-1.056-.689-2.203-1.376-3.107C12.447.718 11.412 0 10 0 8.588 0 7.553.718 6.844 1.65c-.687.904-1.109 2.051-1.377 3.107L5.408 5H3.786C2.184 5 .857 6.225.75 7.8l-.743 11C-.11 20.532 1.282 22 3.042 22h13.916c1.76 0 3.152-1.468 3.035-3.2l-.743-11C19.143 6.225 17.816 5 16.214 5h-1.622zm-8.648 5a.986.986 0 001.014-1.002 6.786 6.786 0 01.007-.306A18.074 18.074 0 017.107 7h5.786a18.849 18.849 0 01.149 2s0 1 1.014 1 1.014-1.001 1.014-1.001l-.001-.106A20.05 20.05 0 0014.936 7h1.278c.534 0 .977.408 1.012.933l.744 11A1.006 1.006 0 0116.958 20H3.042c-.587 0-1.05-.49-1.012-1.067l.744-11A1.008 1.008 0 013.786 7h1.278a20.98 20.98 0 00-.133 1.893v.104C4.928 9.567 5.364 10 5.943 10zM7.5 5h5.002c-.234-.847-.553-1.605-.967-2.15C11.102 2.282 10.616 2 10 2s-1.102.282-1.534.85C8.052 3.395 7.734 4.153 7.5 5z"/></svg><svg viewBox="0 0 66 65" id="box" xmlns="http://www.w3.org/2000/svg"><path d="M29.763 3.749A7.17 7.17 0 0133 2.983a7.17 7.17 0 013.237.766l25.05 12.705c.519.263.952.65 1.253 1.117.301.468.46 1 .46 1.543V44.18a5.69 5.69 0 01-.922 3.087 6.43 6.43 0 01-2.508 2.234l-23.333 11.84a7.17 7.17 0 01-3.237.766 7.17 7.17 0 01-3.237-.765L6.43 49.5a6.43 6.43 0 01-2.508-2.232c-.603-.935-.921-2-.922-3.086V19.114c0-.543.159-1.075.46-1.543a3.214 3.214 0 011.253-1.117l25.05-12.705zM3 17.325l30 15.22m0 0l30-15.22m-30 15.22v30.438M18 24.934l30-15.22M13 33.543l10 5.09"/></svg><svg viewBox="0 0 20 20" id="cross" xmlns="http://www.w3.org/2000/svg"><path d="M.553.553a1.89 1.89 0 000 2.673L7.328 10 .553 16.774a1.89 1.89 0 002.673 2.673L10 12.672l6.774 6.774a1.89 1.89 0 102.673-2.672L12.672 10l6.775-6.774A1.89 1.89 0 0016.774.553L10 7.328 3.226.553a1.89 1.89 0 00-2.673 0z"/></svg><svg viewBox="0 0 60 60" id="earth" xmlns="http://www.w3.org/2000/svg"><path d="M25.556.154l-.014-.02-.037.029C11.17 1.687 0 13.828 0 28.589c0 6.61 2.242 12.696 6.005 17.54v.005h.006a28.528 28.528 0 008.756 7.495 28.491 28.491 0 0011.003 3.414c.134-1.36.466-2.784.963-4.222a24.197 24.197 0 01-16.08-7.822c.158-.686.229-1.484.286-2.176l.026-.337c.051-.63.1-1.235.18-1.847.2-1.507.542-2.513 1.076-3.082.685-.735 1.388-.858 2.858-1.118l.266-.048c.754-.132 1.762-.335 2.733-.864 1.036-.566 1.913-1.43 2.572-2.701.666-1.281.617-2.602.434-3.645a20.02 20.02 0 00-.656-2.468l-.132-.423c-.585-1.91-.656-2.839-.174-3.573.526-.8 1.245-.984 3.118-1.47l.243-.06c1.902-.492 4.477-1.315 5.968-4.497 1.616-3.445.705-7.33-.286-9.966a25.408 25.408 0 00-1.065-2.43c.152-.006.303-.006.454-.006a24.136 24.136 0 0112.95 3.745 119.92 119.92 0 01-2.102 2.716c-1.799 2.25-3.826 4.566-5.208 5.604a3.964 3.964 0 00-1.388 1.852 4.172 4.172 0 00-.157 2.099c.2 1.19.83 2.304 1.39 3.156.466.712 1.014 1.43 1.474 2.035l.314.41c.266.357.485.651.648.906.083.123.143.223.183.297.04.071.054.109.057.111.114.315.237.83.38 1.544l.063.303c1.267-.566 2.64-1 4.111-1.272a14.787 14.787 0 00-.536-2.058c-.314-.85-.997-1.761-1.488-2.413a62.045 62.045 0 00-.371-.486 30.656 30.656 0 01-1.254-1.73c-.442-.674-.657-1.14-.728-1.424 1.856-1.435 4.135-4.105 5.854-6.252a107.34 107.34 0 002.161-2.799 24.25 24.25 0 017.881 16.633 34.76 34.76 0 014.312.603C56.717 12.413 44.085 0 28.554 0c-1.01 0-2.013.051-2.998.154zm-18.6 39.53a24.333 24.333 0 016.556-30.17 24.267 24.267 0 019.994-4.7 21.775 21.775 0 011.653 3.42c.897 2.387 1.257 4.834.417 6.632-.642 1.367-1.556 1.753-3.164 2.167l-.462.115c-1.52.368-3.915.946-5.406 3.21-1.716 2.607-.87 5.463-.342 7.19l.171.55c.228.728.4 1.286.491 1.817.109.62.029.847-.011.93-.286.551-.571.777-.823.914-.314.172-.725.286-1.433.41-.114.022-.24.042-.371.062-1.322.217-3.424.563-5.134 2.401-1.388 1.487-1.893 3.46-2.136 5.052zm21.618 18.08c.171-2.759 1.414-6.124 3.521-9.295a22.944 22.944 0 012.53-3.482 25.394 25.394 0 0112.838-7.861 1.429 1.429 0 001.04-1.736 1.43 1.43 0 00-1.734-1.04 28.251 28.251 0 00-14.291 8.75 26.919 26.919 0 00-2.074 2.697 10.194 10.194 0 01-.422-2.914c0-2.621 1.333-5.469 3.446-7.727a15.202 15.202 0 019.123-4.672c7.996-1.058 12.958-.171 15.885.65a2.141 2.141 0 011.538 1.732 2.146 2.146 0 01-.935 2.121c-.163.109-.426.372-.743.972a14.12 14.12 0 00-.913 2.359c-.249.812-.486 1.69-.743 2.644l-.165.606a61.803 61.803 0 01-1.091 3.677c-.834 2.464-2.01 5.094-3.99 7.113-2.052 2.095-4.84 3.402-8.563 3.402-3.795 0-6.444-1.541-8.138-3.314-1.153 2.116-1.753 4.108-1.844 5.578a2.145 2.145 0 01-2.265 1.972 2.14 2.14 0 01-2.01-2.232z"/></svg><svg viewBox="0 0 22 22" id="fb" xmlns="http://www.w3.org/2000/svg"><path fill-rule="evenodd" clip-rule="evenodd" d="M19 0a3 3 0 013 3v16a3 3 0 01-3 3H3a3 3 0 01-3-3V3a3 3 0 013-3h16zm0 2a1 1 0 011 1v16a1 1 0 01-1 1h-5v-7h2.076a1 1 0 00.949-.684l.443-1.329a.75.75 0 00-.712-.987H14V8c0-.5.5-1 1-1h2a1 1 0 001-1v-.686a.71.71 0 00-.519-.695C16.171 4.273 15 4.273 15 4.273c-2.5 0-4 1.727-4 3.227V10H9a1 1 0 00-1 1v1a1 1 0 001 1h2v7H3a1 1 0 01-1-1V3a1 1 0 011-1h16z"/></svg><svg viewBox="0 0 502.664 502.664" id="icon" xmlns="http://www.w3.org/2000/svg"><path d="M153.821 358.226L0 274.337v-46.463l153.821-83.414v54.574L46.636 250.523l107.185 53.431v54.272zm26.273 29.358L282.103 115.08h32.227L212.084 387.584h-31.99zm168.749-29.358v-54.272l107.164-52.999-107.164-52.59v-53.927l153.821 83.522v46.183l-153.821 84.083z"/></svg><svg viewBox="0 0 22 22" id="inst" xmlns="http://www.w3.org/2000/svg"><path fill-rule="evenodd" clip-rule="evenodd" d="M11 17a6 6 0 100-12 6 6 0 000 12zm0-2a4 4 0 100-8 4 4 0 000 8z"/><path d="M17 4a1 1 0 100 2 1 1 0 000-2z"/><path fill-rule="evenodd" clip-rule="evenodd" d="M.654 3.276C0 4.56 0 6.24 0 9.6v2.8c0 3.36 0 5.04.654 6.324a6 6 0 002.622 2.622C4.56 22 6.24 22 9.6 22h2.8c3.36 0 5.04 0 6.324-.654a6 6 0 002.622-2.622C22 17.44 22 15.76 22 12.4V9.6c0-3.36 0-5.04-.654-6.324A6 6 0 0018.724.654C17.44 0 15.76 0 12.4 0H9.6C6.24 0 4.56 0 3.276.654A6 6 0 00.654 3.276zM12.4 2H9.6c-1.713 0-2.878.002-3.778.075-.877.072-1.325.202-1.638.361a4 4 0 00-1.748 1.748c-.16.313-.29.761-.36 1.638C2.001 6.722 2 7.887 2 9.6v2.8c0 1.713.002 2.878.075 3.778.072.877.202 1.325.361 1.638a4 4 0 001.748 1.748c.313.16.761.29 1.638.36.9.074 2.065.076 3.778.076h2.8c1.713 0 2.878-.002 3.778-.075.877-.072 1.325-.202 1.638-.361a4 4 0 001.748-1.748c.16-.313.29-.761.36-1.638.074-.9.076-2.065.076-3.778V9.6c0-1.713-.002-2.878-.075-3.778-.072-.877-.202-1.325-.361-1.638a4 4 0 00-1.748-1.748c-.313-.16-.761-.29-1.638-.36C15.278 2.001 14.113 2 12.4 2z"/></svg><svg viewBox="0 0 60 60" id="leaves" xmlns="http://www.w3.org/2000/svg"><path d="M50.886 16.485c.002 1.52-.21 3.032-.629 4.495h4.922c2.664 0 4.821 2.128 4.821 4.754v14.728a19.29 19.29 0 01-3.017 10.35A19.66 19.66 0 0148.852 58a19.983 19.983 0 01-10.759 1.827 19.893 19.893 0 01-10.098-4.091l-3.6 3.549a2.278 2.278 0 01-1.627.715 2.304 2.304 0 01-1.651-.658 2.246 2.246 0 01-.667-1.63 2.223 2.223 0 01.725-1.605l3.597-3.551a19.403 19.403 0 01-2.899-4.96 18.47 18.47 0 01-8.009-.16 18.326 18.326 0 01-7.166-3.532 18.021 18.021 0 01-4.94-6.222A17.783 17.783 0 010 29.972V16.526c0-2.505 2.06-4.537 4.6-4.537h13.497A16.483 16.483 0 0124.1 3.334 16.865 16.865 0 0134.177 0h12.334c2.416 0 4.375 1.933 4.375 4.316v12.169zM22.7 12.535a18.365 18.365 0 016.91 3.389 18.074 18.074 0 014.874 5.902 19.99 19.99 0 015.77-.846h5.194a11.85 11.85 0 00.881-4.495V4.495H34.177A12.27 12.27 0 0027.14 6.71a12.012 12.012 0 00-4.44 5.824zm8.546 39.994a15.366 15.366 0 0015.86 1.308 15.113 15.113 0 006.086-5.524 14.836 14.836 0 002.251-7.85v-14.73a.254.254 0 00-.076-.181.26.26 0 00-.185-.076H40.253c-2.81 0-5.564.769-7.957 2.221a15.065 15.065 0 00-5.6 6.005 14.814 14.814 0 001.326 15.647l12.9-12.723a2.279 2.279 0 011.626-.715 2.305 2.305 0 011.652.658 2.245 2.245 0 01.667 1.629 2.223 2.223 0 01-.725 1.605L31.246 52.529zm-10.74-12.067c0-1.774.243-3.495.693-5.128l-8.379-8.27a2.248 2.248 0 01-.725-1.604 2.221 2.221 0 01.667-1.63 2.282 2.282 0 011.652-.657 2.305 2.305 0 011.627.715l7.041 6.944a19.709 19.709 0 017.216-7.2 13.566 13.566 0 00-5.03-5.224 13.81 13.81 0 00-7.04-1.923H4.584l-.015.012a.064.064 0 00-.009.015l-.003.014v13.446c0 1.979.44 3.933 1.292 5.724A13.512 13.512 0 009.48 40.34a13.738 13.738 0 005.286 2.683c1.94.5 3.968.574 5.94.216-.133-.92-.2-1.847-.2-2.776z"/></svg><svg viewBox="0 0 74 105" id="logo" xmlns="http://www.w3.org/2000/svg"><path d="M46.08 1.29c-.69.73-2.326 2.278-3.631 3.467-4.351 3.926-5.237 5.33-5.357 8.54-.09 2.608.54 4.585 2.176 6.834.435.602.795 1.06.795 1.003 0-.043-.27-.601-.6-1.232-1.26-2.407-1.636-5.33-.945-7.408.645-1.948 1.59-3.123 4.786-5.946a25.46 25.46 0 001.845-1.79l.645-.717-.09 3.009c-.045 1.991-.15 3.367-.315 4.083-.555 2.422-1.635 4.342-3.6 6.448-1.426 1.533-1.831 2.407-1.441 3.124.06.129.165.673.225 1.189l.09.946-.855.544c-2.896 1.834-4.936 4.485-5.761 7.494-.225.802-.315 1.576-.315 2.822-.015 2.651.495 4.858 1.785 7.637l.675 1.462-.24 1.146c-.24 1.16-.315 4.614-.105 5.517.075.358.165.43.54.43h.45l.105-1.849c.39-6.59 2.67-10.417 8.027-13.468 4.126-2.35 5.341-3.669 8.087-8.77 2.16-4.054 2.85-5.129 4.516-7.178l.945-1.16-1.335.544c-2.16.888-5.267 1.777-9.017 2.579-3.601.76-5.236 1.204-6.482 1.805-.39.187-.75.344-.795.344-.045 0-.06-.573-.015-1.29.075-1.532.09-1.561 2.416-3.882 1.26-1.247 1.785-1.906 2.22-2.723.96-1.82 1.035-2.35.93-5.86-.105-3.295.075-5.445.675-7.838.15-.616.27-1.131.256-1.146-.015-.014-.6.573-1.29 1.29zm6.916 22.467c-3.016 5.301-5.116 7.55-9.932 10.66-.946.616-2.056 1.39-2.46 1.705-1.486 1.175-3.182 3.496-3.827 5.23-.15.415-.315.702-.36.63-.24-.358-.885-3.28-1.035-4.642-.495-4.514 1.26-8.468 4.951-11.119 2.116-1.533 4.036-2.235 7.907-2.909 1.65-.286 4.276-1.017 5.4-1.49.256-.1.466-.172.496-.157.015.014-.495.96-1.14 2.092zM19.681 4.868c.895 3.229 1.163 7.461.73 11.422-.536 4.935-.089 6.428 3.103 10.488.865 1.09 1.834 2.51 2.177 3.142.97 1.88 1.491 4.549 1.506 7.763v1.334l-.358-.144c-.835-.3-2.341-.43-6.129-.502-2.207-.043-4.489-.143-5.07-.2-.567-.072-1.06-.101-1.074-.087-.03.015.268.244.671.517 1.685 1.162 3.385 2.669 5.354 4.75 1.163 1.219 2.55 2.567 3.102 2.983 2.356 1.794 5.055 2.841 8.32 3.214 1.343.158.806-.33-1.46-1.276-3.61-1.521-5.414-2.755-8.188-5.582-1.044-1.062-2.311-2.195-2.803-2.525l-.895-.574h1.76c4.623 0 7.232.86 9.454 3.113a8.952 8.952 0 012.297 3.96c.12.474.254.89.298.933.15.13.105-1.693-.06-2.697-.342-2.08-2.072-4.377-4.056-5.38l-.865-.431V36.72c0-4.706-.432-6.327-2.699-10-2.997-4.879-3.49-6.801-3.4-13.56.03-2.094.075-3.816.09-3.802 0 .015.313.416.67.89.373.473 1.7 1.894 2.968 3.156 3.072 3.057 4.25 4.822 4.981 7.476.82 2.913.15 6.987-1.79 10.919-.357.732-.626 1.334-.61 1.334.029 0 .283-.344.58-.775 2.342-3.386 3.52-7.202 3.341-10.775-.104-1.951-.507-3.472-1.357-5.165-.865-1.75-1.864-2.985-4.757-5.869a122.098 122.098 0 01-5.428-5.753l-.627-.718.224.79z"/><path d="M46.573 40.036c-3.426.699-5.755 3.608-5.77 7.174 0 .713-.03.77-.465.913-.782.257-.21.385 2.208.485 3.456.143 5.574-.242 7.377-1.355.496-.3 1.743-1.255 2.78-2.125 2.103-1.74 3.184-2.482 4.957-3.38l1.187-.6-1.442-.1c-.781-.042-2.178-.228-3.11-.385-.931-.157-2.404-.413-3.275-.556-1.833-.314-3.155-.342-4.447-.071zm4.958 1.783c.736.17 1.878.356 2.509.399l1.171.1-1.637 1.255c-2.494 1.911-4.147 2.781-6.265 3.295-1.082.27-5.92.97-6.025.87-.135-.129.3-1.455.827-2.496.916-1.812 2.644-3.11 4.822-3.637 1.112-.271 2.855-.186 4.598.214zM13.056 55.64c-.18 7.75.241 10.37 2.272 14.274 1.067 2.045 2.797 4.436 4.03 5.56.301.273.542.532.542.576 0 .057-3.745.072-8.302.043-4.573-.029-8.468 0-8.664.043-.18.043-.42.245-.511.432-.136.303-.12.404.105.648.27.288.436.288 33.947.288 22.936 0 33.765-.043 33.976-.144.391-.201.391-.95 0-1.152-.195-.086-3.294-.144-9.04-.144h-8.738l.918-1.051c2.617-2.953 4.316-6.194 5.43-10.327.315-1.138.345-1.628.39-7.39l.075-6.15H13.163l-.106 4.495zM6.814 79.455c5.082 2.29 12.916 4.158 20.224 4.823 1.293.127 1.88.226 1.654.282-.316.085-.331.1-.076.114.166.014 1.188.084 2.256.17 5.503.381 17.291.155 16.96-.34-.045-.07-.03-.1.06-.057.076.043.346.028.587-.042.421-.113.421-.113-.165-.142-.361-.014.406-.184 1.88-.424 4.585-.735 8.36-1.626 11.457-2.701 1.774-.623 5.217-2.037 5.458-2.263.075-.07-11.668-.127-30.824-.113l-30.974.014 1.503.679zm-.987 20.996h-.202a.429.429 0 00-.132.035l-.088.018a.589.589 0 01-.052.008c-.3.03-.601.047-.906.053-.304.012-.61.018-.914.018-.064 0-.146-.003-.246-.009-.094 0-.184-.012-.272-.035a.742.742 0 01-.229-.123.28.28 0 01-.097-.229c0-.076.018-.152.053-.228a.304.304 0 01.15-.159c.058-.005.16-.011.307-.017l.457-.018c.164-.011.32-.02.466-.026.147-.012.25-.023.308-.035h.14c.059-.006.117-.015.176-.027a.908.908 0 00.167-.061.293.293 0 00.123-.097c.07-.146.106-.302.106-.466v-.975c0-.018.003-.059.008-.123.012-.065.02-.135.027-.211.011-.076.023-.15.035-.22.012-.07.017-.114.017-.132.03-.61.047-1.221.053-1.837.006-.615.009-1.227.009-1.837 0-.257-.003-.51-.009-.755a31.014 31.014 0 01-.009-.739v-.43c.006-.205.01-.416.01-.633v-.624c.005-.2.008-.337.008-.413a.883.883 0 00-.123-.29 1.01 1.01 0 00-.193-.238 1.552 1.552 0 00-.159-.017 2.48 2.48 0 00-.228-.027 3.01 3.01 0 00-.378-.035.52.52 0 00-.088.018 1.863 1.863 0 00-.14.026 1.198 1.198 0 00-.141.027 1.042 1.042 0 01-.088.008 1.703 1.703 0 01-.22.01h-.677c-.105 0-.181-.004-.228-.01a1.403 1.403 0 01-.29.08.648.648 0 00-.299.114c0 .011-.018.035-.053.07l-.07.07-.193.22c-.077.088-.153.179-.229.272a5.452 5.452 0 01-.21.247l-.097.114a1.047 1.047 0 00-.124.22 2.66 2.66 0 01-.123.263 1.035 1.035 0 01-.167.22.322.322 0 01-.237.097c-.07 0-.12-.018-.15-.053a.526.526 0 01-.07-.14v-.08a.868.868 0 00-.008-.123v-.422a.763.763 0 00.008-.105v-.062c.006-.017.018-.061.036-.132a12.381 12.381 0 00.131-.465.715.715 0 01.053-.132c0-.018.006-.056.018-.114l.035-.185a7.245 7.245 0 00.07-.299c0-.011.009-.044.027-.097a3.03 3.03 0 00.07-.175c.023-.065.044-.123.061-.176a.391.391 0 00.036-.097c.017-.047.035-.1.052-.158.024-.064.05-.123.08-.176a.53.53 0 01.122-.132.245.245 0 01.167-.061c.1 0 .18.026.238.079.064.053.123.111.175.176.053.064.106.132.159.202a.397.397 0 00.193.132c.123 0 .252-.003.387-.009a9.11 9.11 0 01.404-.009c.252 0 .501.006.747.018.246.011.49.038.73.079l.035.017a.341.341 0 01.07.027l.08.017a.43.43 0 00.052.01h.281c.153 0 .29-.016.413-.045.13-.029.273-.044.43-.044h.239c.047 0 .088.003.123.01a.18.18 0 01.07.008c.024 0 .07.006.141.017.076.006.158.015.246.027l.238.017c.076.006.126.01.149.01a.983.983 0 01.167-.045c.07-.011.161-.02.272-.026a8.9 8.9 0 01.44-.009c.176-.006.395-.009.66-.009l1.59.018a.59.59 0 00.308-.097c.105-.07.21-.15.316-.237l.308-.273c.105-.088.208-.149.307-.184h.106c.17 0 .29.09.36.272l.035.396c.018.187.035.387.053.597a45.772 45.772 0 00.132 1.055c.006.03.011.065.017.106a.693.693 0 01.035.158v.132c0 .152-.005.29-.017.413a28.1 28.1 0 01-.044.422.205.205 0 01-.088.096.236.236 0 01-.088.018c-.017 0-.035-.009-.053-.026a.11.11 0 01-.043-.027.664.664 0 01-.229-.176 1.767 1.767 0 01-.158-.246 3.816 3.816 0 01-.114-.272 4.47 4.47 0 00-.106-.273 1.28 1.28 0 00-.492-.606 4.269 4.269 0 00-.694-.387 1.146 1.146 0 00-.449-.096c-.146 0-.304-.012-.474-.036a.878.878 0 01-.132-.035.481.481 0 00-.14-.044h-.845a.855.855 0 00-.202.035c-.088.018-.134.033-.14.044a.67.67 0 01-.062.07.577.577 0 00-.079.124c-.023.04-.05.096-.079.167a.789.789 0 00-.044.105.586.586 0 00-.018.097 7.456 7.456 0 00-.017.132c0 .047-.003.094-.009.14a.56.56 0 01-.017.088c0 .094.002.255.008.484a28.907 28.907 0 010 1.485c-.006.228-.008.384-.008.466 0 .299-.024.592-.07.879a6.024 6.024 0 00-.062.87c0 .322.008.644.026.967.023.316.035.641.035.975 0 .404-.012.812-.035 1.222-.018.41-.026.82-.026 1.23 0 .123.026.22.079.29.058.07.132.123.22.159.087.035.184.058.29.07.11.012.216.02.316.026.047.006.12.012.22.018a112.253 112.253 0 00.861.044.46.46 0 01.246.193.512.512 0 01.088.29.43.43 0 01-.114.317c-.076.07-.173.143-.29.219h-.018c-.217 0-.419-.017-.606-.052a25.46 25.46 0 00-.58-.088 13.641 13.641 0 00-1.899-.132zm6.847.105c0-.023-.018-.055-.053-.096a.368.368 0 01-.053-.115v-.044a.61.61 0 01.08-.105c.04-.047.084-.094.131-.141l.14-.14c.048-.041.08-.07.098-.088.011-.012.05-.024.114-.035a.72.72 0 01.15-.027h.623a.375.375 0 00.07-.008.704.704 0 00.185-.062l.044-.018a.241.241 0 00.14-.193c.018-.094.027-.182.027-.264v-.14c0-.205-.006-.399-.018-.58a19.074 19.074 0 01-.008-.59v-.06c0-.018.003-.05.008-.097a9.69 9.69 0 00.018-.15 3.436 3.436 0 01.062-.255v-3.832c0-.117-.02-.21-.062-.281a.41.41 0 00-.158-.158.558.558 0 00-.229-.08 1.87 1.87 0 00-.263-.017h-.36a1.21 1.21 0 01-.414-.061c-.111-.041-.167-.141-.167-.3v-.14a1.03 1.03 0 01.044-.167c.281.012.557.003.826-.026.27-.03.542-.044.818-.044h.228c.024.006.07.012.14.017l.23.018.228.018c.07.005.12.011.15.017h4.13c.176 0 .302.047.378.14.076.089.132.2.167.335v1.02c0 .034-.006.099-.017.193a8.92 8.92 0 01-.044.29c-.012.1-.027.199-.044.299-.012.093-.02.16-.027.202a1.026 1.026 0 01-.061.079c-.03.03-.05.044-.062.044 0 .011-.006.017-.017.017h-.035c-.018 0-.027-.005-.027-.017a.796.796 0 01-.228-.237 1.841 1.841 0 01-.132-.29c-.035-.1-.068-.2-.097-.3a1.025 1.025 0 00-.132-.28.49.49 0 00-.114-.115l-.097-.097a1.415 1.415 0 01-.079-.096 2.422 2.422 0 00-.123-.167 2.306 2.306 0 00-.123-.176.849.849 0 00-.07-.097c-.024-.052-.05-.079-.08-.079a.704.704 0 01-.06-.009 1.963 1.963 0 00-.106-.017.702.702 0 00-.106-.027c-.029-.005-.044-.011-.044-.017a.487.487 0 01-.096-.018 3.436 3.436 0 00-.159-.035 5.717 5.717 0 01-.149-.035 1.228 1.228 0 01-.088-.035h-.044a.267.267 0 00-.096.026.372.372 0 01-.088.018h-.027a.906.906 0 00-.15-.018 3.328 3.328 0 00-.254-.009 4.21 4.21 0 00-.264-.008 2.678 2.678 0 00-.14-.01h-.027a.516.516 0 00-.44.22c-.04.065-.078.138-.113.22l-.088.229c-.006.064-.018.17-.035.316-.012.147-.027.302-.044.466l-.036.466a4.533 4.533 0 00-.017.307v.115c0 .029.003.079.009.15l.017.228.018.228c.012.07.02.117.026.14.041.053.088.106.14.159.06.053.12.088.185.105h.484c.199 0 .372-.003.518-.008.153-.006.334-.024.545-.053a.955.955 0 00.027-.062.622.622 0 01.044-.088c.017-.029.032-.055.044-.079a2.478 2.478 0 00.114-.22l.105-.237c.035-.082.065-.152.088-.21a.728.728 0 01.053-.097.612.612 0 00.035-.15c.012-.082.024-.129.035-.14a.343.343 0 01.185-.106c.076-.017.152-.026.228-.026.082 0 .132.032.15.097a.541.541 0 01.035.202v.325a.728.728 0 01-.018.158.49.49 0 01-.061.14 4.71 4.71 0 00-.018.264 93.849 93.849 0 00-.044 1.02v.756a.326.326 0 00-.017.079 4.613 4.613 0 00-.018.14 1.143 1.143 0 01-.026.238.988.988 0 01-.176.105.392.392 0 01-.176.035.199.199 0 01-.132-.052.772.772 0 01-.114-.15 1.231 1.231 0 01-.088-.175.767.767 0 01-.044-.176 1.249 1.249 0 01-.026-.115 27.442 27.442 0 01-.044-.553.211.211 0 00-.097-.062l-.123-.07a1.084 1.084 0 00-.791-.14h-.097a1.071 1.071 0 00-.149-.01h-.158a1.21 1.21 0 00-.123-.008.726.726 0 00-.088.009h-.114a.49.49 0 00-.097.008h-.053l-.123.14v.3c0 .346-.011.68-.035 1.002a13.48 13.48 0 00-.035.993c0 .176.014.305.044.387a.31.31 0 00.14.175.81.81 0 00.247.08c.1.017.222.046.369.087.011 0 .032.01.061.027a.19.19 0 01.062.052h1.335a.771.771 0 00.08-.008.88.88 0 01.132-.027c.047-.011.087-.02.123-.026a.393.393 0 01.079-.018h.589a.145.145 0 00.061-.026l.088-.07a1.32 1.32 0 00.088-.08c.023-.023.038-.035.044-.035a.268.268 0 01.097-.026.375.375 0 01.07-.009.224.224 0 00.053-.026.304.304 0 00.052-.08.984.984 0 00.141-.29c.03-.099.067-.198.114-.298a.447.447 0 00.088-.105.798.798 0 00.062-.115.192.192 0 00.052-.026l.088-.07.08-.08a.438.438 0 00.043-.061.387.387 0 01.035-.07l.07-.106a5.561 5.561 0 01.106-.176c0-.005.009-.017.027-.035a.14.14 0 00.035-.026c0-.012.003-.018.009-.018h.017c.088 0 .14.035.158.106a.764.764 0 01.027.202v.184c0 .03.003.1.009.211.005.112.008.232.008.36a59.85 59.85 0 00.027.554v.027a.95.95 0 01-.044.264c-.03.093-.07.184-.123.272a.786.786 0 01-.194.22.4.4 0 01-.228.096 3.18 3.18 0 00-.229-.017l-.343-.018-.351-.017a1.382 1.382 0 01-.237-.027h-.317a.932.932 0 01-.202.035l-.343.018-.342.018-.194.008h-3.33a.848.848 0 01-.334.035.697.697 0 01-.089.009c0 .012-.02.018-.061.018a.68.68 0 01-.114-.009.527.527 0 00-.07-.009.56.56 0 01-.141.062.575.575 0 01-.15.035c-.03 0-.079-.006-.15-.018a3.445 3.445 0 01-.21-.044 2.089 2.089 0 01-.22-.044.999.999 0 01-.158-.035zm11.619-3.48c0 .082.038.14.114.176a.507.507 0 00.211.052h.466c.064 0 .129.003.193.01.065.005.13.008.194.008.152 0 .284-.023.395-.07.111-.053.167-.167.167-.343v-.15a4.443 4.443 0 00-.237-.8c-.106-.269-.205-.53-.299-.782a.767.767 0 00-.053-.131.524.524 0 00-.07-.141.473.473 0 00-.097-.114.175.175 0 00-.114-.044.218.218 0 00-.184.096 1.034 1.034 0 00-.106.229 3.75 3.75 0 00-.062.272 1.037 1.037 0 01-.061.211l-.097.282-.131.43c-.047.147-.094.287-.141.422-.041.135-.07.229-.088.281v.106zm-2.048 3.436h-.044a.518.518 0 00-.088.018c-.047.006-.1.015-.158.026a14.864 14.864 0 00-.255.027h-.052a.109.109 0 01-.088-.044.323.323 0 01-.07-.211.76.76 0 01-.01-.079v-.027c0-.105.036-.175.106-.211a7.44 7.44 0 01.22-.096.38.38 0 00.088-.027c.046-.023.096-.047.149-.07.059-.023.111-.044.158-.061a.41.41 0 00.088-.053.883.883 0 01.053-.044l.097-.097c.035-.035.067-.07.096-.105l.088-.088a.436.436 0 01.026-.044c.024-.035.036-.062.036-.08a.87.87 0 01.017-.105.317.317 0 01.044-.105c.158-.317.317-.636.475-.958.158-.328.307-.656.448-.985a.496.496 0 00.07-.149c.035-.088.059-.15.07-.184.006-.012.021-.047.044-.106l.07-.193c.024-.07.045-.135.062-.194a.49.49 0 00.035-.105 1.88 1.88 0 01.053-.123c.035-.065.07-.135.106-.211.04-.076.076-.15.105-.22.035-.07.059-.114.07-.132.047-.105.091-.199.132-.281.047-.088.091-.19.132-.308.024-.046.053-.1.088-.158.041-.058.08-.12.114-.184.035-.07.065-.138.088-.203a.446.446 0 00.044-.184v-.123a.416.416 0 00-.026-.114 1.29 1.29 0 01-.018-.097c0-.041.024-.094.07-.158a.65.65 0 01.106-.123 1.89 1.89 0 01.08-.036c.046-.017.093-.038.14-.061a45.36 45.36 0 01.193-.097l.07-.07.115-.114c.047-.047.088-.091.123-.132.04-.047.07-.08.088-.097a.368.368 0 00.035-.053.54.54 0 01.061-.096.384.384 0 01.08-.088c.029-.03.06-.041.096-.035.059.017.108.07.15.158.046.088.084.184.114.29.035.1.064.2.088.299.023.094.044.158.061.193l.027.123c.017.053.032.106.043.158a3.372 3.372 0 01.062.211 5.465 5.465 0 01.061.334 4.525 4.525 0 01.062.317c.006.017.02.073.044.167.03.093.062.202.097.325l.105.37c.035.116.065.21.088.28.047.159.105.317.176.475a2.41 2.41 0 01.21.791c.012.076.042.17.089.281l.035.08c.023.034.047.075.07.122a1.216 1.216 0 01.097.211c0 .012.003.032.008.062.006.03.012.064.018.105.012.035.02.07.026.106a.24.24 0 00.018.061c0 .006.006.027.018.062.011.03.026.064.044.105.017.035.032.07.044.106.017.029.029.044.035.044.029.152.067.316.114.492s.12.33.22.466c.047.07.131.129.255.175l.386.141c.135.047.252.1.352.158.1.059.15.135.15.229a.34.34 0 01-.08.237.458.458 0 01-.184.123.87.87 0 01-.255.053 4.142 4.142 0 01-.264.009h-.36c-.094 0-.258-.003-.492-.009l-.756-.018c-.264-.011-.516-.02-.756-.026a11.262 11.262 0 00-.492-.018c-.065-.023-.103-.049-.115-.079a.493.493 0 01-.017-.149v-.062a.08.08 0 01.009-.035.405.405 0 01.22-.22 1.7 1.7 0 01.29-.096c.105-.024.207-.05.307-.08a.473.473 0 00.246-.21l.018-.062-.018-.061a1.796 1.796 0 00-.044-.22 4.797 4.797 0 00-.062-.281 4.206 4.206 0 00-.087-.378.41.41 0 01-.053-.088l-.08-.158a1.45 1.45 0 00-.078-.167.968.968 0 00-.062-.132.378.378 0 00-.272-.176 1.62 1.62 0 00-.334-.035h-.176c-.211 0-.41.015-.598.044-.181.03-.375.044-.58.044a.862.862 0 01-.123-.009.879.879 0 00-.123-.009c-.04.041-.061.073-.061.097-.012.006-.027.03-.044.07a3.718 3.718 0 01-.044.123 1.024 1.024 0 01-.044.123.37.37 0 00-.018.062c0 .012-.02.047-.061.105a.387.387 0 01-.08.106c-.07.146-.11.299-.123.457-.011.152-.017.31-.017.474 0 .094.03.164.088.211a.694.694 0 00.22.097c.087.023.181.044.28.062.1.011.194.032.282.061a.532.532 0 01.22.114c.058.053.088.129.088.229 0 .193-.091.313-.273.36-.023 0-.067-.003-.132-.009l-.184-.017a20.361 20.361 0 01-.185-.018 1.02 1.02 0 01-.123-.017h-.87a17.61 17.61 0 00-.396-.027 6.845 6.845 0 00-.254-.026 1.356 1.356 0 00-.14-.018h-.045zm8.947.044a.859.859 0 00-.193.044h-.035a2.94 2.94 0 01-.229-.009.653.653 0 01-.193-.043.335.335 0 01-.132-.106.315.315 0 01-.053-.193v-.132c.006-.059.077-.1.211-.123.141-.03.296-.047.466-.053.17-.012.331-.02.484-.026.152-.012.243-.035.272-.07a1.879 1.879 0 01.035-.141.143.143 0 00.009-.044.91.91 0 01.009-.106c.012-.052.02-.105.026-.158a2.195 2.195 0 00.035-.255 9.1 9.1 0 01.01-.29 109.682 109.682 0 00.043-1.353v-.159a3.685 3.685 0 000-.518v-.176l.044-.114.009-.176c.006-.117.012-.255.017-.413.012-.158.02-.32.027-.483.011-.164.017-.3.017-.405v-1.221a.483.483 0 00-.017-.106 77.1 77.1 0 00-.018-.14.649.649 0 00-.026-.132.742.742 0 01-.009-.08.29.29 0 00-.176-.184 1 1 0 00-.299-.088 2.312 2.312 0 00-.36-.026 2.926 2.926 0 01-.343-.035.775.775 0 01-.263-.088c-.065-.047-.097-.117-.097-.211 0-.053.017-.1.053-.14a.613.613 0 01.123-.124.523.523 0 01.15-.079.415.415 0 01.148-.035c.082 0 .182.012.3.035.117.023.207.03.272.018a15.425 15.425 0 01.563-.053 60.524 60.524 0 00.536.026c.122.006.237.015.342.027.106.005.173.011.202.017h.185a.323.323 0 01.079-.017.914.914 0 01.123-.027 3.09 3.09 0 00.123-.017l.07-.01h.44a.668.668 0 00.061-.008l.106-.017c.04-.006.076-.012.105-.018a.663.663 0 01.062-.009h.061a.077.077 0 01.035-.009c.07 0 .141.003.212.01a.67.67 0 01.193.043c.058.018.105.05.14.097a.284.284 0 01.062.193.28.28 0 01-.018.08.202.202 0 00-.017.06c-.047.03-.12.074-.22.133a.905.905 0 01-.246.096 1.48 1.48 0 00-.158.018 4.416 4.416 0 00-.246.026 2.87 2.87 0 00-.246.027 2.678 2.678 0 01-.141.008.207.207 0 00-.123.062.24.24 0 00-.062.114 6.096 6.096 0 00-.105.782c-.012.258-.018.522-.018.791v1.125l-.017.106a3.974 3.974 0 01-.027.202c-.005.07-.014.138-.026.202a1.834 1.834 0 00-.009.123v1.846c0 .017-.003.056-.008.114a20.458 20.458 0 00-.036.36 1.37 1.37 0 00-.008.097v.124c0 .011.008.043.026.096a.375.375 0 01.026.088c0 .012-.008.032-.026.061-.018.024-.026.044-.026.062a.168.168 0 00-.01.053.098.098 0 00-.008.044v.035a.57.57 0 00.097.316c.07.094.158.141.263.141h.053c.17-.03.346-.056.527-.08.188-.029.367-.043.537-.043h1.485a15.274 15.274 0 00.422-.044.24.24 0 00.07-.027.505.505 0 00.07-.052l.115-.115c.047-.046.088-.09.123-.131a1 1 0 00.088-.097 1.08 1.08 0 01.053-.123.764.764 0 01.035-.08.206.206 0 01.026-.043c0-.006.009-.015.026-.026l.07-.053.062-.044a.155.155 0 01.044-.018l.044-.044a.345.345 0 00.07-.096.466.466 0 00.053-.115.987.987 0 00.088-.105 218.074 218.074 0 00.246-.317.774.774 0 01.08-.105.94.94 0 01.043-.053.258.258 0 01.088-.009c.094 0 .167.038.22.115.052.07.09.155.114.255.023.1.035.202.035.307.006.1.009.182.009.246v.229a.543.543 0 01-.009.105v.044a.488.488 0 01-.026.097.377.377 0 00-.027.088 4.137 4.137 0 00-.017.351.634.634 0 01-.044.246.337.337 0 01-.14.176.933.933 0 01-.326.123c-.053.006-.15.009-.29.009-.14.006-.293.009-.457.009h-1.644c-.152 0-.287-.003-.404-.009a.797.797 0 01-.184-.009c-.03 0-.088-.003-.176-.009a4.97 4.97 0 01-.282-.008 4.968 4.968 0 01-.57-.035 3.024 3.024 0 00-.097-.018 2.981 2.981 0 01-.097-.018c-.03-.005-.047-.011-.053-.017h-.141a1.443 1.443 0 01-.175.017 35.076 35.076 0 01-.739.044h-.588a1.34 1.34 0 00-.124.018c-.064.017-.1.026-.105.026a.29.29 0 01-.15.035 1.165 1.165 0 01-.122.009.677.677 0 01-.106-.017 2.53 2.53 0 01-.176-.027 4.431 4.431 0 01-.167-.035 1.847 1.847 0 00-.088-.009zm9.3-6.96a1.053 1.053 0 00-.071-.264.444.444 0 00-.114-.167.668.668 0 00-.176-.123l-.264-.132a.806.806 0 00-.202-.062.522.522 0 01-.123-.044.403.403 0 01-.08-.167.838.838 0 01-.026-.167v-.07c.006-.04.021-.07.044-.088a.582.582 0 01.097-.026.834.834 0 00.123-.035l.194-.018a2.74 2.74 0 01.21-.009c.1 0 .203.01.308.027.106.011.243.032.413.061h.651c.1 0 .196-.003.29-.009l.28-.017a3.57 3.57 0 00.309-.035.432.432 0 00.105-.027.484.484 0 01.097-.026h.061c.135 0 .258.023.37.07.117.047.175.144.175.29a.27.27 0 01-.105.229c-.07.052-.156.1-.255.14-.094.041-.19.082-.29.123a.504.504 0 00-.22.15.728.728 0 00-.14.237 1.882 1.882 0 00-.088.29c-.018.1-.03.2-.036.3a4.412 4.412 0 00-.009.263c0 .093.012.17.036.228a.468.468 0 01.035.29c0 .03-.009.05-.026.062a8.141 8.141 0 00-.026.273c0 .058-.004.114-.01.166a1.184 1.184 0 00-.009.106v.773a.56.56 0 01-.035.15l-.035.14v.185a1 1 0 00.009.088c.012.046.02.096.026.15a1.595 1.595 0 01.035.236c.006.03.01.082.01.159l.017.228c.006.076.009.15.009.22.006.07.009.12.009.15.005.046.017.108.035.184.017.07.035.143.052.22l.07.22c.024.07.047.125.071.166.023.059.064.132.123.22.065.088.135.176.211.264.076.082.152.155.228.22a.63.63 0 00.229.122.24.24 0 01.08.036.276.276 0 00.105.026c.04 0 .061.003.061.009.065.006.123.02.176.044.053.017.102.038.15.061.046.018.096.035.149.053a.556.556 0 00.175.026h.123a.346.346 0 01.062-.035l.105-.053.106-.044a.368.368 0 01.062-.017h.14c.059-.018.12-.035.185-.053.047-.011.096-.02.15-.026a6.77 6.77 0 01.122-.027.962.962 0 00.422-.29c.129-.146.231-.278.308-.395a.571.571 0 00.026-.08.938.938 0 00.044-.122 1.75 1.75 0 00.044-.132.398.398 0 00.018-.08c.07-.18.123-.371.158-.57a5.2 5.2 0 00.07-.607c.012-.21.02-.419.026-.624.006-.205.018-.404.035-.598l.01-.052a.637.637 0 00.008-.106c.006-.04.012-.076.018-.105a.55.55 0 00.008-.07v-.765a10.045 10.045 0 01-.026-.255 13.752 13.752 0 00-.044-.396c-.012-.14-.023-.272-.035-.395a6.891 6.891 0 01-.009-.273 8.512 8.512 0 00-.07-.167.574.574 0 00-.088-.167.498.498 0 00-.026-.087c-.012-.036-.024-.053-.035-.053-.041-.041-.08-.062-.115-.062a.325.325 0 00-.079.01.197.197 0 01-.14-.01 3.372 3.372 0 01-.405-.105.722.722 0 01-.325-.255.886.886 0 00-.026-.062v-.079a.343.343 0 01.026-.08.552.552 0 01.343-.21c.134-.029.275-.044.422-.044.105 0 .21.006.316.018.105.006.208.009.308.009.047 0 .114-.01.202-.027a1.38 1.38 0 01.237-.026h.545c.053 0 .114-.003.185-.009a3.01 3.01 0 01.228-.009c.117 0 .232.01.343.027a.673.673 0 01.281.105c.012.018.018.05.018.097a.993.993 0 01.008.088.39.39 0 01-.087.272.555.555 0 01-.211.14c-.082.03-.173.054-.273.071a1.246 1.246 0 00-.263.08.52.52 0 00-.229.193.512.512 0 00-.088.29c0 .093.009.175.026.246a.76.76 0 01.036.246v.15a.424.424 0 01-.035.114.908.908 0 00-.027.096v.73a7.08 7.08 0 00-.017.334c-.006.158-.015.328-.027.51l-.017.5c-.006.159-.012.27-.018.334a.703.703 0 00-.062.176c-.011.053-.02.109-.026.167l-.017.158a.581.581 0 01-.027.167c-.006.018-.014.05-.026.097a3.582 3.582 0 01-.044.14 5.914 5.914 0 01-.035.15.39.39 0 00-.018.08c-.011.01-.02.04-.026.087a8.635 8.635 0 00-.018.132.447.447 0 01-.017.123c-.006.035-.012.053-.018.053a.36.36 0 01-.061.123 1.454 1.454 0 00-.132.22 4.17 4.17 0 01-.106.21 3.544 3.544 0 01-.175.334c-.106.2-.244.378-.414.537-.164.158-.34.319-.527.483l-.105.079a5.638 5.638 0 00-.15.097 4.64 4.64 0 01-.132.096.596.596 0 00-.07.044h-.255l-.299.035a3.025 3.025 0 01-.246.044 2.824 2.824 0 01-.255.044 2.227 2.227 0 01-.298.018h-.528a.832.832 0 00-.202-.062l-.21-.035a1.093 1.093 0 01-.194-.035.555.555 0 01-.185-.07.88.88 0 01-.114-.062 20.595 20.595 0 00-.202-.14 4.567 4.567 0 00-.211-.15 1.355 1.355 0 01-.158-.132l-.062-.043a1.047 1.047 0 00-.15-.194 4.343 4.343 0 00-.158-.167 4.426 4.426 0 01-.158-.167 1.131 1.131 0 01-.123-.22 3.767 3.767 0 01-.264-.905 6.827 6.827 0 01-.07-.967 8.93 8.93 0 01-.017-.29v-3.155c.006-.135.011-.237.017-.308zm13.64-.036a.19.19 0 00.096-.123.608.608 0 00.027-.176c0-.123-.047-.208-.14-.254a.96.96 0 00-.3-.115 9.87 9.87 0 01-.298-.088c-.088-.035-.132-.096-.132-.184 0-.03.012-.053.035-.07a.222.222 0 01.088-.053.8.8 0 01.105-.044 1.11 1.11 0 00.106-.035 1.366 1.366 0 01.264-.053h1.546a.888.888 0 01.308-.08 2.56 2.56 0 01.51-.008c.07 0 .129.009.175.026.053.018.094.05.123.097.03.047.044.114.044.202 0 .123-.035.217-.105.281a.647.647 0 01-.246.15c-.1.03-.205.053-.316.07-.106.018-.2.038-.282.062a2.53 2.53 0 00-.703.378c-.2.152-.39.34-.571.562a1.83 1.83 0 00-.097.114l-.158.176-.15.185a2.873 2.873 0 01-.096.105c-.024.03-.05.065-.08.106a.451.451 0 01-.105.105 1.34 1.34 0 00-.22.246c-.07.1-.128.197-.175.29-.024.041-.044.08-.062.115a.458.458 0 00-.017.14c0 .123.032.252.096.387.065.135.126.26.185.378.023.035.053.088.088.158l.105.193c.035.065.065.124.088.176l.053.097c.006.012.026.047.061.105.041.053.085.115.132.185.047.064.088.126.123.184l.08.115.21.395c.07.164.144.328.22.492.076.159.158.314.246.466.088.147.188.287.299.422.111.135.24.264.387.387.052.04.12.076.202.105.082.024.161.05.237.079.082.03.15.071.202.123.059.047.088.118.088.211 0 .118-.038.191-.114.22a.545.545 0 01-.246.053c-.053 0-.108-.003-.167-.009a1.261 1.261 0 00-.14-.009.585.585 0 01-.176.027l-.308.035a6.027 6.027 0 01-.475.035h-.044a1.002 1.002 0 01-.176-.035 1.773 1.773 0 00-.114-.035c-.035-.006-.055-.015-.061-.027-.03 0-.091-.003-.185-.009l-.29-.017c-.1 0-.193-.003-.281-.009a3.388 3.388 0 00-.167-.009.828.828 0 01-.29-.061v-.062c0-.093.02-.158.061-.193a.898.898 0 01.141-.088.62.62 0 00.14-.105c.047-.041.07-.115.07-.22a1.22 1.22 0 00-.052-.281 3.387 3.387 0 00-.15-.422 6.556 6.556 0 00-.201-.484 3.556 3.556 0 00-.229-.448 2.544 2.544 0 00-.22-.334c-.07-.088-.132-.132-.184-.132-.1 0-.182.03-.246.088a.72.72 0 00-.167.202 1.601 1.601 0 00-.123.246c-.036.088-.07.165-.106.229-.017.03-.061.1-.132.21-.07.106-.149.224-.237.352-.082.13-.161.25-.237.36-.07.112-.114.18-.132.203-.012.006-.026.026-.044.061a.19.19 0 01-.035.062v.061c0 .082.035.141.105.176.07.035.153.068.246.097.094.023.188.056.282.097a.43.43 0 01.228.175c0 .077-.02.129-.061.159a.382.382 0 01-.132.052h-2.461c-.047 0-.076-.017-.088-.052a.717.717 0 01-.009-.088v-.071a.973.973 0 01.237-.202 3.342 3.342 0 01.58-.255c.1-.04.194-.09.282-.149l.14-.132.22-.22c.082-.076.158-.149.229-.22.076-.07.129-.12.158-.149.152-.175.281-.357.387-.545.11-.193.22-.39.325-.588a.477.477 0 01.079-.08.5.5 0 00.07-.079l.07-.096c.036-.047.065-.091.088-.132a1.636 1.636 0 00.106-.167v-.044a.703.703 0 00.009-.115.82.82 0 00.009-.114.72.72 0 00.008-.088.534.534 0 00-.008-.079.821.821 0 00-.01-.114.702.702 0 00-.008-.114v-.08a1.106 1.106 0 01-.37-.342 3.326 3.326 0 01-.228-.457.574.574 0 00-.052-.097 172.888 172.888 0 00-.176-.281.53.53 0 00-.044-.08c-.024-.046-.059-.12-.106-.219a1.14 1.14 0 00-.105-.21c-.012-.007-.024-.024-.035-.054l-.035-.105-.036-.106a.297.297 0 00-.017-.07l-.018-.017a.036.036 0 00-.026-.01.104.104 0 01-.018-.025.58.58 0 01-.061-.053 2.09 2.09 0 01-.282-.457 1.688 1.688 0 00-.263-.44 1.741 1.741 0 00-.237-.228 2.65 2.65 0 00-.255-.194 9.54 9.54 0 00-.255-.175 2.024 2.024 0 01-.255-.203.187.187 0 01-.088-.105 1.126 1.126 0 01-.009-.14c0-.065.015-.106.044-.124a.284.284 0 01.14-.026h.036l.035.009.088.017c.035.006.064.012.088.018.03.006.05.009.061.009h.044c.375 0 .744-.012 1.108-.036.369-.023.738-.035 1.107-.035a.68.68 0 01.308.053c.07.03.105.111.105.246 0 .117-.023.2-.07.246a.549.549 0 01-.158.097.689.689 0 00-.159.088c-.046.035-.07.105-.07.21 0 .048.018.11.053.185.035.07.064.12.088.15.017.03.056.102.114.22.065.11.132.234.202.369a48.192 48.192 0 01.334.57c.041.06.076.106.106.141a.168.168 0 00.123.053c.07 0 .15-.029.237-.088.094-.064.214-.152.36-.263a.798.798 0 00.176-.22 3.977 3.977 0 00.316-.633 1.5 1.5 0 01.115-.21zm11.144 6.979a.91.91 0 00-.105.009h-.132a.684.684 0 00-.114.008h-.053l-.21.079-1.082-.061h-2.303a1.157 1.157 0 00-.44-.079.51.51 0 00-.29.061c-.058 0-.157-.003-.298-.008a9.704 9.704 0 00-.87 0 9.644 9.644 0 01-.273.008.913.913 0 00-.096.009.98.98 0 01-.14.009 6.654 6.654 0 01-.22.026.19.19 0 01-.062.009.163.163 0 01-.053.009H58.5a.957.957 0 01-.36-.053c-.077-.029-.144-.123-.203-.281-.023 0-.035-.006-.035-.018-.005-.006-.005-.014 0-.026 0-.047.015-.097.044-.149a.81.81 0 01.123-.159.894.894 0 01.158-.114.326.326 0 01.168-.053h.834c.012 0 .05-.032.115-.096a2.15 2.15 0 01.158-.159.19.19 0 00.035-.07.265.265 0 00.026-.088c.07-.346.112-.688.123-1.028.012-.34.018-.694.018-1.064v-.193c.006-.105.009-.228.009-.37l.017-.439c.006-.158.01-.307.01-.448.005-.14.008-.26.008-.36.006-.106.009-.176.009-.211v-.475c0-.468-.009-.931-.026-1.388a35.405 35.405 0 01-.027-1.363v-.061a43.98 43.98 0 00.044-.598c.006-.07.009-.114.009-.132.006-.052.012-.143.017-.272a121.83 121.83 0 00.044-1.116 1.07 1.07 0 01-.052-.273 3.816 3.816 0 00-.027-.281.973.973 0 00-.07-.264.525.525 0 00-.167-.21 4.213 4.213 0 00-.466-.026 66.4 66.4 0 01-.272-.019 1.647 1.647 0 01-.176-.017 9.537 9.537 0 01-.308-.044 1.571 1.571 0 01-.307-.097.74.74 0 01-.238-.184.476.476 0 01-.087-.3l.035-.017a.104.104 0 00.026-.017.036.036 0 01.026-.01c.141-.081.267-.134.378-.157.112-.03.255-.044.43-.044h.045a.353.353 0 00.053.044c.035.023.058.035.07.035.293.023.586.04.879.053.293.005.589.008.887.008.247 0 .487-.003.721-.008.235-.006.466-.01.695-.01h1.942c.023 0 .062-.002.114-.008a1.49 1.49 0 01.167-.009l.185-.017c.058-.006.102-.01.132-.01h.114c.017 0 .059.004.123.01l.21.017c.077 0 .147.003.212.009.07.006.114.009.132.009h1.045c.047.006.115.011.203.017l.272.018c.094.006.176.015.246.026.07.006.109.012.115.018a1.224 1.224 0 01.352.176.839.839 0 01.122.079c.059.035.106.12.14.255a2.6 2.6 0 01.097.43c.024.158.041.314.053.466.018.153.032.27.044.352 0 .029.003.082.009.158.012.07.02.146.026.228l.018.238c.006.076.009.129.009.158v.483a.22.22 0 01-.115.106.616.616 0 01-.15.017h-.06a.504.504 0 01-.212-.246l-.052-.14a.487.487 0 00-.07-.15c0-.006-.012-.017-.036-.035a.667.667 0 00-.132-.132l-.043-.044a4.668 4.668 0 01-.247-.395 2.257 2.257 0 00-.272-.422.28.28 0 00-.062-.062.323.323 0 01-.061-.079c-.006-.011-.026-.02-.062-.026a.189.189 0 01-.07-.035.617.617 0 01-.167-.159 1.853 1.853 0 00-.132-.166 1.248 1.248 0 00-.14-.167.608.608 0 00-.22-.132c-.047 0-.138-.003-.273-.01a8.145 8.145 0 00-.413-.025c-.146-.012-.287-.02-.422-.027-.128-.011-.22-.02-.272-.026h-.457l-.08-.009a.858.858 0 00-.14-.026 1.63 1.63 0 00-.15-.027.533.533 0 00-.087-.017h-.255c-.023 0-.076.006-.158.017a5.515 5.515 0 00-.255.027 3.381 3.381 0 00-.255.026 2.685 2.685 0 01-.14.009h-.52a.158.158 0 00-.078.026c-.03.012-.044.024-.044.035v1.09a2.282 2.282 0 01-.08.536 1.98 1.98 0 00-.07.519c0 .264.012.53.036.8.029.263.044.533.044.808 0 .188-.015.378-.044.572a4.971 4.971 0 00-.036.597v.062a.981.981 0 01.07.079c.03.03.056.044.08.044h.448a.742.742 0 00.08-.009.883.883 0 01.131-.026 1.58 1.58 0 01.123-.027.53.53 0 01.07-.017h.783c.04 0 .114-.003.22-.01.11-.005.225-.008.342-.008l.343-.017c.105-.006.179-.01.22-.01a.666.666 0 00.193-.333c.041-.153.082-.278.123-.378a.715.715 0 00.018-.123l.035-.22a7.93 7.93 0 01.035-.21.423.423 0 01.035-.133c0-.006.006-.02.018-.044a1.136 1.136 0 00.097-.158.535.535 0 01.035-.044c.023-.076.038-.158.043-.246a.949.949 0 01.044-.237.397.397 0 01.115-.185c.052-.047.137-.07.254-.07.13 0 .214.03.255.088.041.058.062.155.062.29a.466.466 0 01-.009.105 3.322 3.322 0 00-.044.167.324.324 0 00-.009.08c0 .046.003.09.01.131a.539.539 0 01.008.08 2.48 2.48 0 00-.018.22c-.005.11-.014.24-.026.386-.012.146-.023.305-.035.474a86.47 86.47 0 01-.035.475c-.012.146-.024.275-.035.387a3.126 3.126 0 01-.018.228l.009.167a4.7 4.7 0 01.009.29c0 .047-.006.1-.018.159-.012.052-.02.087-.026.105l-.018.044c-.006.03-.015.064-.026.105a.7.7 0 01-.027.106.366.366 0 00-.008.061c0 .018.002.059.008.123l.018.211a2.722 2.722 0 01.035.317v.105a.928.928 0 01.009.132v.123a.72.72 0 01.009.097.991.991 0 01-.159.545c-.005.029-.035.061-.088.096a.273.273 0 01-.087.044.342.342 0 01-.097-.044.346.346 0 01-.105-.096.66.66 0 01-.212-.343 2.9 2.9 0 01-.07-.475 8.072 8.072 0 01-.017-.536 3.31 3.31 0 00-.035-.5 1.05 1.05 0 00-.115-.396.381.381 0 00-.281-.194.986.986 0 01-.22.018h-.677a.8.8 0 01-.21-.018c-.03 0-.077-.003-.141-.008a2.218 2.218 0 00-.202-.01l-.194-.017a1.433 1.433 0 00-.123-.009c-.005-.017-.029-.038-.07-.061a.238.238 0 00-.079-.035h-.088a.91.91 0 00-.44.114.459.459 0 00-.245.343 6.63 6.63 0 01-.044.246 24.01 24.01 0 01-.062.387c-.017.14-.038.278-.062.413a8.503 8.503 0 00-.035.29v.113c0 .047.003.123.01.228a48.82 48.82 0 01.034.686c.012.106.018.179.018.22.03.047.047.082.053.105.005.024.008.05.008.08 0 .228-.011.45-.035.667a6.367 6.367 0 00-.035.686v.15c.006.075.009.128.009.157.006.012.02.033.044.062a.97.97 0 01.07.08c.03.022.059.046.088.07.03.023.05.038.062.043.005.012.032.02.079.027l.175.017a.94.94 0 01.185.018c.065.006.114.012.15.017a183.893 183.893 0 001.468.044h.368c.07.03.141.05.211.062.077.012.15.017.22.017h.642a.704.704 0 00.061-.008.657.657 0 01.114-.027c.047-.011.088-.02.123-.026a.362.362 0 01.062-.018h1.67a.51.51 0 00.184-.096c.06-.053.115-.109.168-.167a2.015 2.015 0 00.246-.378.486.486 0 00.07-.123 2.51 2.51 0 00.097-.202 44.436 44.436 0 00.149-.326 2.64 2.64 0 01.08-.105c.04-.053.06-.085.06-.097a1.042 1.042 0 00.062-.193.97.97 0 00.044-.053l.088-.088a1.117 1.117 0 00.272-.44 1.89 1.89 0 01.036-.078.45.45 0 01.096-.106.526.526 0 00.097-.088.11.11 0 01.044-.026.292.292 0 00.044-.035.225.225 0 01.053-.027.507.507 0 01.105.088l.106.106v.044c0 .07-.012.137-.036.202a.84.84 0 000 .413.566.566 0 01.035.21v.071c0 .018-.011.05-.035.097a.338.338 0 00-.026.105v1.029l-.026.272a1.383 1.383 0 01-.07.308.745.745 0 01-.15.246.33.33 0 01-.255.105h-.044a.575.575 0 00-.088-.017l-.123-.018-.114-.017a.428.428 0 00-.053-.009l-.053-.035c-.035-.024-.052-.038-.052-.044h-.097a1.8 1.8 0 01-.58.105 4.99 4.99 0 00-.571.035.915.915 0 00-.097.009 6.37 6.37 0 01-.158.018 3.415 3.415 0 00-.238.061h-.043a.975.975 0 01-.3-.044.982.982 0 00-.307-.044h-.097a1.355 1.355 0 00-.167-.008h-.184a1.503 1.503 0 00-.15-.009z"/></svg><svg viewBox="0 0 22 23" id="loop" xmlns="http://www.w3.org/2000/svg"><path fill-rule="evenodd" clip-rule="evenodd" d="M16.04 15.124a9.004 9.004 0 10-1.415 1.415l5.667 5.668a1 1 0 001.415-1.415l-5.668-5.668zm-7.036 1.393a7.013 7.013 0 110-14.026 7.013 7.013 0 010 14.026z"/></svg><svg viewBox="0 0 60 60" id="support" xmlns="http://www.w3.org/2000/svg"><path d="M30 0C13.458 0 0 13.458 0 30v12.429C0 45.501 2.691 48 6 48h3a3 3 0 003-3V29.571a3 3 0 00-3-3H6.276C7.944 14.961 17.934 6 30 6s22.056 8.961 23.724 20.571H51a3 3 0 00-3 3V48c0 3.309-2.691 6-6 6h-6v-3H24v9h18c6.618 0 12-5.382 12-12 3.309 0 6-2.499 6-5.571V30C60 13.458 46.542 0 30 0z"/></svg><svg viewBox="0 0 22 18" id="twit" xmlns="http://www.w3.org/2000/svg"><path fill-rule="evenodd" clip-rule="evenodd" d="M18.783 1.203a4.88 4.88 0 00.79-.24c.28-.115.51-.253.876-.486a1.029 1.029 0 011.025-.044.96.96 0 01.526.849c0 1.042-.135 1.897-.447 2.648a5.235 5.235 0 01-1.071 1.614c-.186 3.243-1.16 5.79-2.648 7.72-1.543 2-3.595 3.28-5.759 3.998-2.157.715-4.436.875-6.478.633-2.029-.241-3.904-.889-5.21-1.869a.943.943 0 01-.307-1.138c.177-.403.613-.64 1.062-.578 1.285.177 2.523-.105 3.541-.508a6.381 6.381 0 01-.565-.336c-.927-.62-1.676-1.46-2.012-2.11a.934.934 0 01-.004-.854.974.974 0 01.3-.349C1.046 9.075.5 7.584.5 6.586a.95.95 0 01.385-.76c.102-.077.217-.133.338-.167a6.896 6.896 0 01-.24-.855C.717 3.563.741 2.162 1.03 1.048a.988.988 0 01.83-.721A1.01 1.01 0 012.865.8c1.079 1.8 3.066 2.902 4.916 3.554.87.307 1.675.502 2.279.622.13-1.177.47-2.148.994-2.919A4.58 4.58 0 0113.74.17c1.783-.463 3.76.064 5.043 1.033zm-9.035 5.68a18.866 18.866 0 01-2.654-.718c-1.357-.478-2.933-1.224-4.253-2.38.023.213.057.424.1.629.222 1.033.633 1.612 1.006 1.791a.95.95 0 01.49 1.198c-.239.624-.869.675-1.441.537.46.666 1.288 1.33 2.668 1.552.477.076.828.47.836.936a.973.973 0 01-.804.96l-.87.169c.133.111.277.22.43.323.698.466 1.397.666 2.002.52.452-.108.923.099 1.134.5a.941.941 0 01-.252 1.177c-.644.517-1.396.932-2.15 1.276-.353.162-.749.321-1.178.461.33.068.674.124 1.029.166 1.77.21 3.741.069 5.584-.542 1.836-.609 3.534-1.679 4.804-3.325 1.268-1.644 2.153-3.92 2.272-7.01a.948.948 0 01.292-.646c.45-.433.821-.93 1.004-1.522-.32.096-.68.18-1.11.259-.325.06-.66-.04-.894-.266-.765-.737-2.276-1.222-3.533-.896a2.584 2.584 0 00-1.533 1.081c-.412.608-.727 1.554-.727 2.99a.95.95 0 01-.33.716c-.498.434-1.336.178-1.921.064z"/></svg><svg viewBox="0 0 18 22" id="user" xmlns="http://www.w3.org/2000/svg"><path fill-rule="evenodd" clip-rule="evenodd" d="M9 11c2.761 0 5-2.462 5-5.5S11.761 0 9 0 4 2.462 4 5.5 6.239 11 9 11zm0-2.2c-1.657 0-3-1.477-3-3.3 0-1.823 1.343-3.3 3-3.3s3 1.477 3 3.3c0 1.823-1.343 3.3-3 3.3zm7.103 4.309a2.608 2.608 0 00-3.187-.41c-.19.113-.358.216-.512.312-.41.253-.729.449-1.139.617C10.75 13.84 10.084 14 9 14c-1.073 0-1.75-.15-2.274-.355-.462-.181-.828-.408-1.31-.707-.093-.059-.192-.12-.296-.184a2.628 2.628 0 00-3.256.388c-.38.384-.824.88-1.18 1.42C.347 15.079 0 15.765 0 16.5V19a3 3 0 003 3h12a3 3 0 003-3v-2.5c0-.746-.355-1.44-.7-1.96a9.699 9.699 0 00-1.197-1.431zm-2.166 1.31a.608.608 0 01.75.101c.334.337.685.732.946 1.125.278.42.367.707.367.855V19a1 1 0 01-1 1H3a1 1 0 01-1-1v-2.5c0-.145.085-.427.356-.839.254-.386.598-.777.93-1.112a.629.629 0 01.788-.09c.083.05.167.103.253.157.482.301 1.022.638 1.671.892.795.31 1.726.492 3.002.492 1.3 0 2.231-.195 3.025-.522.576-.236 1.083-.55 1.53-.827.133-.082.26-.16.382-.232z"/></svg><svg viewBox="0 0 24 18" id="youtube" xmlns="http://www.w3.org/2000/svg"><path fill-rule="evenodd" clip-rule="evenodd" d="M9.496 4.132A1 1 0 008 5v8a1 1 0 001.496.868l7-4a1 1 0 000-1.736l-7-4zM13.984 9L10 11.277V6.723L13.984 9z"/><path fill-rule="evenodd" clip-rule="evenodd" d="M0 9c0-3.75 0-5.625.955-6.939A5 5 0 012.06.955C3.375 0 5.251 0 9 0h6c3.75 0 5.625 0 6.939.955a5 5 0 011.106 1.106C24 3.375 24 5.251 24 9c0 3.75 0 5.625-.955 6.939a5 5 0 01-1.106 1.106C20.625 18 18.749 18 15 18H9c-3.75 0-5.625 0-6.939-.955A5 5 0 01.955 15.94C0 14.625 0 12.749 0 9zm9-7h6c1.92 0 3.198.003 4.167.108.932.1 1.337.276 1.596.465.255.185.479.409.664.664.189.259.364.664.465 1.596C21.997 5.802 22 7.08 22 9s-.003 3.198-.108 4.167c-.1.932-.276 1.337-.465 1.596a2.988 2.988 0 01-.664.664c-.259.189-.664.364-1.596.465-.969.105-2.248.108-4.167.108H9c-1.92 0-3.198-.003-4.167-.108-.932-.1-1.337-.276-1.596-.465a3.003 3.003 0 01-.664-.664c-.189-.259-.364-.664-.465-1.596C2.003 12.198 2 10.92 2 9s.003-3.198.108-4.167c.1-.932.276-1.337.465-1.596a3 3 0 01.664-.664c.259-.189.664-.364 1.596-.465C5.802 2.003 7.08 2 9 2z"/></svg></svg>